<?xml version="1.0"?><svg xmlns="http://www.w3.org/2000/svg" viewBox="0 0 100 100"><g><circle cx="37.402" cy="63.888" r="26.112" fill="#f5e169"/><circle cx="37.402" cy="63.888" r="19.584" fill="none" stroke="#f7b26a" stroke-width="6" stroke-linecap="round" stroke-linejoin="round" stroke-miterlimit="10"/></g><g><path d="M42.143 56.397h-7.181a3.746 3.746 0 0 0-3.746 3.746v0a3.746 3.746 0 0 0 3.746 3.746h4.88a3.746 3.746 0 0 1 3.746 3.746v0a3.746 3.746 0 0 1-3.746 3.746h-8.626" fill="none" stroke="#f47e5f" stroke-width="4" stroke-linecap="round" stroke-linejoin="round" stroke-miterlimit="10"/><path fill="none" stroke="#f47e5f" stroke-width="4" stroke-linecap="round" stroke-linejoin="round" stroke-miterlimit="10" d="M37.402 71.379v3.933"/><path fill="none" stroke="#f47e5f" stroke-width="4" stroke-linecap="round" stroke-linejoin="round" stroke-miterlimit="10" d="M37.402 52.464v3.933"/></g><g><circle cx="71.702" cy="32.176" r="17.008" fill="#f5e169"/><circle cx="71.702" cy="32.176" r="12.756" fill="none" stroke="#f7b26a" stroke-width="3" stroke-linecap="round" stroke-linejoin="round" stroke-miterlimit="10"/></g><g><path d="M74.791 27.296h-4.677a2.44 2.44 0 0 0-2.44 2.44v0a2.44 2.44 0 0 0 2.44 2.44h3.179a2.44 2.44 0 0 1 2.44 2.44v0a2.44 2.44 0 0 1-2.44 2.44h-5.618" fill="none" stroke="#f47e5f" stroke-width="3" stroke-linecap="round" stroke-linejoin="round" stroke-miterlimit="10"/><path fill="none" stroke="#f47e5f" stroke-width="3" stroke-linecap="round" stroke-linejoin="round" stroke-miterlimit="10" d="M71.702 37.055v2.562"/><path fill="none" stroke="#f47e5f" stroke-width="3" stroke-linecap="round" stroke-linejoin="round" stroke-miterlimit="10" d="M71.702 24.735v2.561"/></g><g><circle cx="39.244" cy="21.545" r="11.545" fill="#f5e169"/><circle cx="39.244" cy="21.545" r="8.659" fill="none" stroke="#f7b26a" stroke-width="2" stroke-linecap="round" stroke-linejoin="round" stroke-miterlimit="10"/></g><g><path d="M41.34 18.233h-3.175c-.915 0-1.656.741-1.656 1.656v0c0 .915.741 1.656 1.656 1.656h2.158c.915 0 1.656.741 1.656 1.656v0c0 .915-.741 1.656-1.656 1.656h-3.814" fill="none" stroke="#f47e5f" stroke-width="2" stroke-linecap="round" stroke-linejoin="round" stroke-miterlimit="10"/><path fill="none" stroke="#f47e5f" stroke-width="2" stroke-linecap="round" stroke-linejoin="round" stroke-miterlimit="10" d="M39.244 24.857v1.739"/><path fill="none" stroke="#f47e5f" stroke-width="2" stroke-linecap="round" stroke-linejoin="round" stroke-miterlimit="10" d="M39.244 16.494v1.739"/></g><metadata xmlns:d="https://loading.io/stock/">
<d:name>money</d:name>
<d:tags>money,price,revenue,profit,evaluation,value,dollar,bucks,cent,coin,credit,currency</d:tags>
<d:license>by</d:license>
<d:slug>41jxnp</d:slug>
</metadata></svg>