<?xml version="1.0" standalone="no"?>
<svg xmlns:xlink="http://www.w3.org/1999/xlink" id="wave" style="transform:rotate(0deg); transition: 0.3s" viewBox="0 0 1440 490" version="1.1" xmlns="http://www.w3.org/2000/svg"><defs><linearGradient id="sw-gradient-0" x1="0" x2="0" y1="1" y2="0"><stop stop-color="#4361ee" offset="0%"/><stop stop-color="#3a86ff" offset="100%"/></linearGradient></defs><path style="transform:translate(0, 0px); opacity:1" fill="url(#sw-gradient-0)" d="M0,98L120,138.8C240,180,480,261,720,269.5C960,278,1200,212,1440,179.7C1680,147,1920,147,2160,122.5C2400,98,2640,49,2880,98C3120,147,3360,294,3600,359.3C3840,425,4080,408,4320,408.3C4560,408,4800,425,5040,392C5280,359,5520,278,5760,228.7C6000,180,6240,163,6480,171.5C6720,180,6960,212,7200,220.5C7440,229,7680,212,7920,171.5C8160,131,8400,65,8640,81.7C8880,98,9120,196,9360,196C9600,196,9840,98,10080,49C10320,0,10560,0,10800,16.3C11040,33,11280,65,11520,73.5C11760,82,12000,65,12240,57.2C12480,49,12720,49,12960,49C13200,49,13440,49,13680,114.3C13920,180,14160,310,14400,351.2C14640,392,14880,343,15120,334.8C15360,327,15600,359,15840,375.7C16080,392,16320,392,16560,334.8C16800,278,17040,163,17160,106.2L17280,49L17280,490L17160,490C17040,490,16800,490,16560,490C16320,490,16080,490,15840,490C15600,490,15360,490,15120,490C14880,490,14640,490,14400,490C14160,490,13920,490,13680,490C13440,490,13200,490,12960,490C12720,490,12480,490,12240,490C12000,490,11760,490,11520,490C11280,490,11040,490,10800,490C10560,490,10320,490,10080,490C9840,490,9600,490,9360,490C9120,490,8880,490,8640,490C8400,490,8160,490,7920,490C7680,490,7440,490,7200,490C6960,490,6720,490,6480,490C6240,490,6000,490,5760,490C5520,490,5280,490,5040,490C4800,490,4560,490,4320,490C4080,490,3840,490,3600,490C3360,490,3120,490,2880,490C2640,490,2400,490,2160,490C1920,490,1680,490,1440,490C1200,490,960,490,720,490C480,490,240,490,120,490L0,490Z"/></svg>