<?xml version="1.0" standalone="no"?>
<!DOCTYPE svg PUBLIC "-//W3C//DTD SVG 20010904//EN"
 "http://www.w3.org/TR/2001/REC-SVG-20010904/DTD/svg10.dtd">
<svg version="1.0" xmlns="http://www.w3.org/2000/svg"
 width="1279.000000pt" height="1280.000000pt" viewBox="0 0 1279.000000 1280.000000"
 preserveAspectRatio="xMidYMid meet">

<g transform="translate(0.000000,1280.000000) scale(0.100000,-0.100000)"
fill="#000000" stroke="none">
<path d="M6120 12790 c-1394 -64 -2666 -547 -3756 -1425 -223 -180 -545 -488
-738 -705 -930 -1048 -1472 -2302 -1603 -3710 -24 -258 -24 -842 0 -1100 131
-1409 673 -2662 1603 -3710 117 -132 428 -441 554 -551 936 -816 2063 -1337
3285 -1518 746 -111 1561 -82 2300 80 953 209 1864 645 2620 1253 291 233 665
597 886 861 1109 1323 1633 2959 1493 4665 -89 1089 -454 2131 -1062 3033
-793 1179 -1948 2059 -3287 2506 -725 242 -1540 356 -2295 321z m241 -464 c18
-23 28 -27 63 -24 33 2 43 8 54 31 9 19 21 27 39 27 23 0 25 -3 19 -32 -9 -51
-57 -88 -112 -88 -25 0 -59 8 -75 17 -29 17 -64 76 -55 91 10 17 46 5 67 -22z
m-340 -197 c4 -24 2 -47 -3 -50 -6 -4 -73 -12 -149 -19 -77 -7 -142 -17 -145
-22 -3 -4 -2 -34 2 -65 l7 -56 71 6 c39 4 106 10 149 13 l77 7 0 -50 0 -51
-132 -12 c-73 -7 -137 -16 -141 -20 -9 -8 1 -121 13 -140 7 -11 31 -11 127 -1
65 6 135 14 155 17 l37 6 6 -47 c4 -25 5 -48 2 -51 -5 -6 -430 -55 -433 -51
-1 1 -13 92 -28 202 -14 110 -31 239 -38 287 -6 48 -8 91 -4 95 7 7 392 52
411 48 6 -1 13 -22 16 -46z m280 -1 c1 -29 4 -116 8 -193 l6 -140 109 193 109
192 58 0 c46 0 59 -3 63 -17 2 -10 7 -143 11 -295 l7 -278 -56 0 -56 0 -1 88
c-1 48 -4 133 -8 190 l-6 103 -109 -190 -109 -191 -58 0 -57 0 -6 93 c-3 50
-8 183 -12 295 l-6 202 56 0 56 0 1 -52z m744 12 c105 -11 193 -20 198 -20 4
0 7 -23 7 -50 l0 -51 -88 7 -88 7 -13 -209 c-6 -115 -15 -224 -18 -243 l-6
-33 -53 4 c-30 3 -56 7 -58 9 -2 2 2 90 10 194 7 105 15 213 17 242 l3 51 -80
7 c-45 4 -83 9 -86 10 -3 2 -4 24 -2 49 5 56 -11 54 257 26z m-1591 -18 c2 -4
7 -24 11 -45 7 -33 5 -37 -14 -37 -40 0 -67 -40 -75 -110 -4 -35 -14 -76 -22
-91 -18 -35 -18 -39 0 -39 8 0 29 -12 47 -27 47 -40 190 -216 181 -224 -13
-11 -126 -29 -131 -21 -27 39 -111 144 -140 175 -32 34 -59 46 -73 32 -3 -3 8
-58 23 -123 16 -64 29 -120 29 -123 0 -4 -17 -10 -37 -14 -21 -3 -47 -9 -59
-11 -18 -5 -22 2 -33 53 -7 32 -37 161 -67 288 -38 164 -50 231 -42 236 13 8
98 22 103 17 2 -2 15 -55 30 -118 15 -63 28 -116 30 -118 2 -2 12 1 23 7 20
11 32 50 47 154 10 66 41 108 95 129 51 19 67 21 74 10z m2152 -82 c108 -22
198 -40 201 -40 5 0 -6 -92 -12 -98 -1 -1 -71 11 -155 28 -83 17 -154 30 -156
28 -1 -2 -7 -31 -12 -63 -7 -43 -7 -62 1 -67 6 -4 43 -12 82 -19 148 -24 213
-66 236 -151 29 -110 -48 -218 -158 -218 -21 0 -108 14 -194 31 l-156 31 48
282 c27 154 49 284 49 289 0 12 22 9 226 -33z m-2756 -103 c23 -12 54 -36 67
-54 l24 -31 -51 -29 -52 -30 -28 29 c-24 23 -37 28 -77 28 -57 -1 -87 -16
-114 -56 -60 -92 28 -319 132 -339 76 -14 149 48 149 128 l0 37 60 0 60 0 0
-36 c0 -135 -108 -234 -255 -234 -73 0 -132 28 -186 88 -77 86 -118 237 -90
338 21 79 90 147 176 175 48 16 142 9 185 -14z m3476 -85 c142 -72 191 -207
135 -373 -47 -140 -128 -204 -256 -204 -59 0 -81 5 -137 33 -86 42 -132 96
-154 183 -16 60 -16 69 0 139 21 97 65 172 122 213 60 42 76 47 159 43 55 -2
84 -10 131 -34z m534 -227 c124 -63 153 -82 172 -113 46 -75 18 -200 -56 -250
-59 -40 -100 -39 -202 3 -49 21 -94 39 -100 42 -6 2 -30 -39 -54 -92 -24 -52
-47 -95 -51 -95 -14 0 -99 44 -99 51 0 7 22 59 132 304 88 198 101 225 105
225 2 0 71 -34 153 -75z m-4754 -197 l235 -212 -57 -29 -56 -28 -26 23 c-15
13 -38 33 -51 46 -13 12 -28 22 -32 22 -5 0 -52 -21 -105 -47 l-96 -48 7 -72
7 -72 -52 -26 c-29 -15 -54 -25 -56 -22 -2 2 -8 44 -13 93 -19 179 -51 470
-55 502 -4 30 -1 34 42 57 26 13 53 24 60 25 7 0 118 -95 248 -212z m5344 -87
c74 -45 138 -85 142 -89 4 -4 -44 -97 -107 -207 -63 -110 -115 -206 -115 -213
0 -7 7 -15 15 -18 8 -4 15 -11 15 -16 0 -13 -99 -188 -106 -188 -6 0 -52 25
-72 38 -11 7 -7 20 17 64 l31 55 -157 95 -158 95 -27 -46 c-15 -25 -29 -50
-31 -55 -4 -11 -87 35 -87 48 0 19 102 186 114 186 6 0 17 -5 24 -12 27 -27
180 163 285 352 l17 32 33 -20 c17 -11 93 -57 167 -101z m-5845 -144 c145
-232 155 -250 138 -262 -30 -23 -82 -49 -86 -45 -2 3 -57 91 -122 195 -65 105
-124 196 -130 203 -10 11 -25 5 -78 -29 -37 -24 -67 -47 -67 -52 0 -5 38 -69
85 -143 46 -73 93 -151 105 -173 40 -79 19 -141 -63 -182 l-41 -21 -23 28
c-29 37 -29 50 2 70 14 9 25 24 25 34 0 10 -54 103 -120 208 -66 105 -121 195
-122 201 -3 11 321 223 334 218 4 -1 77 -114 163 -250z m3060 -7 c758 -45
1472 -258 2125 -633 666 -382 1284 -981 1682 -1632 235 -384 407 -769 522
-1170 69 -240 95 -351 130 -565 50 -307 60 -442 60 -790 0 -348 -10 -483 -60
-790 -78 -474 -221 -914 -438 -1350 -236 -471 -513 -859 -879 -1228 -551 -557
-1193 -955 -1922 -1194 -969 -317 -2036 -314 -3000 6 -714 238 -1359 637
-1889 1171 -711 715 -1169 1609 -1335 2610 -70 418 -79 936 -25 1378 211 1721
1371 3216 2993 3859 640 254 1353 368 2036 328z m3172 -102 c14 -15 6 -30 -90
-165 -58 -81 -104 -149 -102 -151 2 -2 92 33 201 78 215 88 205 87 269 35 l29
-24 -20 -28 c-11 -15 -85 -120 -164 -233 -79 -113 -145 -207 -147 -209 -3 -5
-81 48 -89 60 -2 4 40 70 94 146 54 76 101 144 106 151 8 14 -2 10 -242 -88
-166 -69 -161 -68 -226 -15 -22 17 -27 27 -19 37 5 7 81 113 167 236 l158 222
30 -17 c16 -10 36 -26 45 -35z m-6808 -87 c57 -29 121 -99 162 -174 30 -55 34
-71 34 -137 0 -64 -4 -82 -27 -122 -58 -98 -176 -165 -274 -155 -98 10 -198
86 -258 197 -34 62 -46 165 -27 223 26 77 102 151 188 183 52 20 148 12 202
-15z m-569 -366 c-27 -29 -25 -58 10 -140 16 -39 30 -79 30 -90 0 -18 7 -20
58 -21 59 0 286 -69 280 -84 -7 -17 -79 -90 -89 -90 -5 0 -64 18 -130 41 -114
39 -159 43 -159 16 0 -6 39 -51 87 -99 l86 -87 -29 -34 c-16 -20 -36 -38 -43
-42 -10 -4 -82 61 -223 202 l-208 207 37 38 c20 21 40 38 44 38 4 0 45 -35 90
-77 45 -43 87 -78 93 -78 22 0 16 56 -14 124 -52 119 -52 148 1 220 l31 43 34
-33 34 -33 -20 -21z m7886 40 c19 -20 34 -39 34 -42 0 -4 -35 -43 -77 -85
l-78 -78 84 -81 84 -80 81 80 82 81 41 -42 42 -43 -180 -190 c-99 -104 -189
-199 -200 -210 -19 -19 -19 -19 -59 20 -22 21 -40 43 -40 48 0 5 37 47 82 94
l82 84 -82 82 -83 82 -84 -87 c-47 -49 -88 -88 -93 -88 -4 0 -25 18 -47 40
l-38 39 194 205 c107 112 200 204 207 205 8 1 29 -15 48 -34z m-8098 -604
c116 -95 212 -175 212 -177 0 -3 -95 -127 -211 -275 -142 -182 -215 -267 -223
-261 -61 46 -446 365 -446 369 0 10 62 83 71 83 5 0 90 -66 189 -147 100 -82
185 -148 190 -148 12 0 100 118 94 127 -2 4 -50 44 -107 89 -185 149 -257 212
-257 224 0 6 15 29 33 50 l33 38 144 -119 c80 -66 166 -136 191 -157 l46 -37
44 57 c24 31 47 62 51 68 5 8 -61 68 -175 160 -100 82 -186 152 -191 156 -5 5
7 28 29 54 33 41 39 44 54 32 9 -7 112 -91 229 -186z m8647 23 c66 -79 121
-148 123 -152 1 -4 -13 -22 -31 -40 l-34 -33 -88 106 c-48 58 -92 105 -97 105
-5 0 -88 -68 -185 -152 l-176 -152 -38 42 c-22 23 -39 45 -38 49 1 12 422 373
434 372 6 0 64 -65 130 -145z m283 -365 l39 -52 -37 -66 c-217 -380 -266 -465
-275 -467 -5 -1 -25 18 -43 43 -37 50 -37 49 12 128 l25 41 -70 92 c-38 51
-75 92 -81 92 -6 0 -38 -7 -71 -17 l-59 -16 -19 24 c-11 13 -29 36 -40 51
l-20 27 28 7 c15 4 147 42 293 85 146 42 268 77 272 78 4 1 25 -22 46 -50z
m-10244 -3256 l52 -168 179 -5 180 -5 -142 -108 c-79 -59 -143 -111 -143 -115
0 -4 23 -81 51 -171 27 -90 48 -165 45 -168 -2 -3 -66 42 -142 100 l-137 105
-144 -110 c-79 -60 -143 -106 -143 -103 0 4 23 80 51 168 28 89 52 167 54 173
1 6 -59 57 -136 115 -76 57 -139 107 -139 112 0 4 78 7 174 7 l174 0 22 73
c70 233 84 277 88 272 2 -2 28 -80 56 -172z m11082 -170 l15 -53 175 0 c96 0
174 -3 174 -7 -1 -5 -64 -55 -141 -113 -91 -69 -137 -110 -134 -119 15 -39
104 -335 102 -337 -2 -2 -27 16 -57 39 -30 24 -94 73 -141 110 l-86 66 -137
-105 c-76 -58 -140 -103 -143 -101 -3 3 18 80 46 170 28 90 51 166 51 169 0 3
-64 54 -142 114 l-143 109 180 5 179 5 46 150 c25 83 50 161 54 174 8 24 33
-43 102 -276z m-2157 -4298 c105 -118 194 -221 196 -228 3 -6 -11 -23 -30 -36
l-36 -24 -29 28 -30 29 0 -34 c0 -80 -75 -168 -167 -196 -111 -34 -145 -14
-324 187 -78 88 -144 158 -146 155 -2 -2 0 -20 5 -40 10 -36 10 -36 -28 -46
-48 -13 -80 -52 -80 -97 0 -48 34 -109 143 -258 57 -77 92 -134 87 -140 -11
-13 -79 -49 -84 -44 -2 2 -76 105 -166 229 -90 124 -167 230 -172 237 -6 8 3
20 29 38 l38 26 28 -33 27 -32 0 37 c0 21 7 51 15 67 17 33 80 70 120 70 14 0
25 5 25 11 0 6 10 19 23 30 53 46 46 50 197 -120 78 -87 152 -163 166 -170 79
-36 169 11 194 102 16 57 -10 103 -148 259 -67 76 -122 141 -122 145 0 9 61
62 71 63 4 0 93 -97 198 -215z m-6278 -41 c138 -69 205 -198 145 -279 -12 -17
-15 -17 -53 5 -39 21 -40 24 -35 65 6 57 -19 93 -91 130 -61 32 -97 29 -122
-9 -21 -31 -10 -57 57 -137 118 -141 135 -176 118 -239 -10 -36 -56 -88 -97
-109 -31 -16 -122 -14 -174 4 -55 20 -129 73 -165 120 -32 43 -43 122 -24 179
13 42 18 43 70 16 37 -19 39 -21 28 -50 -14 -41 -3 -89 26 -121 67 -72 156
-93 204 -49 37 35 28 60 -67 178 -66 81 -91 120 -95 149 -23 135 134 219 275
147z m914 -284 c14 -5 25 -12 25 -14 0 -2 -25 -59 -55 -127 -31 -67 -54 -123
-52 -125 2 -2 25 0 50 5 78 14 162 -8 220 -58 82 -72 77 -126 -32 -371 -45
-102 -85 -191 -90 -199 -8 -12 -16 -12 -55 3 -25 10 -46 20 -46 23 0 2 36 86
80 184 45 99 83 194 87 210 17 85 -85 156 -186 129 -60 -16 -98 -68 -180 -254
-41 -92 -79 -165 -85 -163 -6 2 -28 10 -48 18 -21 7 -38 16 -38 19 0 4 45 108
101 231 56 123 116 258 134 299 18 41 47 106 65 143 34 74 33 74 105 47z
m-410 -29 c55 -24 124 -87 142 -128 15 -37 17 -131 4 -152 -8 -12 -16 -12 -53
2 l-43 17 0 61 c0 56 -3 63 -32 89 -95 85 -217 52 -304 -82 -66 -103 -74 -177
-24 -237 64 -75 164 -79 240 -10 20 18 22 18 58 -8 43 -31 45 -38 15 -64 -97
-83 -230 -87 -339 -11 -108 76 -138 196 -79 320 92 194 255 274 415 203z
m3915 -256 c29 -75 36 -86 54 -82 86 20 81 20 94 -8 18 -39 16 -43 -29 -56
-23 -7 -43 -18 -45 -24 -4 -9 94 -272 127 -340 12 -25 20 -30 49 -29 19 0 42
4 51 8 12 5 23 -2 39 -30 l23 -37 -24 -18 c-30 -23 -118 -42 -153 -33 -15 3
-37 20 -51 38 -19 25 -133 299 -160 384 -7 24 -20 25 -69 6 -12 -4 -20 3 -30
27 -17 40 -15 46 24 54 17 4 30 11 30 16 0 5 -11 37 -25 70 l-24 61 36 43 c20
24 39 42 43 40 4 -2 22 -43 40 -90z m657 59 c54 -26 106 -78 139 -139 11 -22
15 -38 9 -43 -6 -5 -99 -49 -207 -98 -109 -49 -198 -92 -198 -96 0 -14 52 -68
86 -89 107 -66 264 14 264 135 0 32 3 35 47 50 26 9 50 16 55 16 15 0 8 -105
-11 -145 -35 -78 -123 -141 -225 -162 -138 -28 -260 37 -329 174 -70 140 -56
258 43 347 95 85 214 104 327 50z m-1727 -389 c13 -124 26 -225 29 -225 3 1
53 57 111 126 58 68 114 126 125 129 35 7 115 13 115 8 0 -2 -44 -54 -97 -114
-54 -61 -100 -114 -101 -120 -2 -5 60 -81 137 -169 78 -87 141 -164 141 -169
0 -6 -13 -11 -29 -11 -16 0 -41 -3 -57 -6 -27 -5 -37 4 -147 130 -64 75 -122
136 -127 136 -5 0 -21 -16 -35 -35 l-27 -34 12 -111 c7 -61 11 -112 9 -114 -2
-2 -26 -6 -54 -7 l-49 -4 -23 210 c-12 116 -29 278 -38 360 -9 83 -18 169 -21
192 -6 41 -6 42 27 46 83 10 73 33 99 -218z m-770 158 c0 -62 -25 -535 -36
-671 l-6 -82 -54 0 -54 0 5 58 c5 51 14 218 30 542 3 58 8 129 11 158 l5 52
50 0 49 0 0 -57z m2997 -9 c13 -21 23 -42 23 -46 0 -4 -22 -19 -50 -33 l-50
-25 -29 47 c-17 26 -29 48 -28 49 12 12 94 53 102 51 6 -2 20 -21 32 -43z
m-3991 5 c147 -55 208 -188 161 -349 -58 -193 -205 -278 -387 -224 -196 58
-252 231 -145 444 66 130 222 184 371 129z m2614 -34 c58 -30 72 -60 140 -305
18 -63 43 -135 56 -159 28 -50 24 -56 -40 -67 -39 -6 -41 -5 -66 36 -7 12 -17
8 -52 -26 -146 -141 -366 -130 -408 21 -11 39 -10 51 4 90 29 74 68 101 251
174 108 43 108 43 100 79 -16 77 -102 102 -210 61 -60 -22 -80 -44 -90 -101
-7 -35 -8 -36 -57 -40 l-50 -3 5 52 c7 65 39 110 106 146 97 53 250 74 311 42z
m-1996 -96 c53 -21 113 -76 137 -126 46 -94 23 -266 -46 -357 -18 -25 -54 -53
-90 -71 -51 -26 -69 -30 -139 -29 -202 1 -319 137 -287 333 25 154 111 251
240 270 52 8 139 -2 185 -20z m844 -55 c20 -8 45 -22 56 -32 18 -16 61 -100
54 -107 -1 -1 -25 -6 -53 -9 -49 -6 -50 -6 -66 26 -21 45 -51 58 -132 58 -62
0 -71 -3 -98 -29 -35 -35 -36 -43 -6 -75 17 -19 55 -33 157 -61 74 -20 145
-43 158 -51 56 -37 80 -131 48 -192 -39 -75 -124 -114 -245 -114 -96 0 -148
16 -195 60 -29 27 -72 109 -62 119 5 6 99 25 100 21 14 -42 48 -86 76 -100 38
-20 124 -24 164 -8 61 23 86 88 48 123 -10 9 -72 31 -138 48 -65 17 -137 41
-159 52 -53 29 -77 77 -72 140 9 100 117 163 260 152 38 -3 85 -12 105 -21z"/>
<path d="M7431 11659 c-6 -40 -9 -74 -7 -76 9 -9 131 -32 172 -33 51 0 74 23
74 73 0 47 -20 60 -130 87 -47 11 -88 20 -91 20 -3 0 -11 -32 -18 -71z"/>
<path d="M8135 11765 c-88 -44 -137 -225 -82 -305 42 -62 109 -92 171 -76 101
25 175 222 119 318 -39 67 -139 97 -208 63z"/>
<path d="M8739 11485 c-16 -35 -29 -69 -29 -73 0 -15 114 -62 148 -62 63 0 97
85 52 130 -21 21 -112 70 -130 70 -6 0 -24 -29 -41 -65z"/>
<path d="M3874 11458 c3 -12 10 -59 16 -102 6 -44 13 -82 15 -85 7 -7 125 51
125 61 0 9 -136 141 -152 146 -5 2 -7 -7 -4 -20z"/>
<path d="M9230 11198 c-30 -50 -81 -119 -114 -154 -32 -36 -57 -66 -55 -68 37
-28 183 -106 188 -100 4 5 47 79 95 164 l88 154 -26 21 c-14 11 -47 32 -73 46
l-48 27 -55 -90z"/>
<path d="M6155 10073 c-137 -74 -340 -182 -450 -240 -110 -59 -425 -226 -700
-372 -275 -147 -521 -278 -547 -291 -27 -14 -48 -28 -48 -31 0 -3 136 -85 303
-181 166 -97 343 -200 394 -229 l92 -54 3 -179 3 -178 38 -33 c82 -71 377
-135 767 -165 206 -16 727 -17 890 -2 361 35 619 100 695 176 25 25 25 26 26
203 l0 178 161 98 c88 54 163 95 166 92 3 -3 8 -78 10 -168 4 -150 2 -177 -28
-343 l-32 -180 52 -85 c29 -46 53 -85 55 -87 1 -1 26 37 55 85 l52 88 -31 185
c-28 165 -31 206 -31 380 l0 195 165 89 c222 119 210 108 144 141 -29 15 -101
53 -159 85 -58 32 -238 128 -400 215 -309 165 -679 364 -1110 595 -140 75
-262 139 -270 141 -8 3 -127 -55 -265 -128z m685 -778 c301 -40 564 -141 705
-270 35 -33 45 -49 45 -73 0 -18 -4 -32 -10 -32 -5 0 -30 16 -55 35 -159 121
-407 202 -720 235 -163 18 -770 8 -895 -14 -194 -34 -395 -93 -503 -147 -45
-23 -150 -98 -155 -111 -2 -4 -8 -8 -13 -8 -6 0 -9 19 -7 42 3 38 8 45 71 93
182 139 471 229 847 265 141 13 543 4 690 -15z m-5 -815 c344 -22 579 -64 627
-112 l21 -21 -25 -22 c-126 -108 -1192 -155 -1797 -79 -341 43 -418 110 -195
169 71 19 324 52 489 63 173 13 693 14 880 2z"/>
<path d="M2742 8658 c-21 -21 -14 -39 63 -154 166 -250 389 -508 677 -787 217
-210 295 -276 388 -328 48 -27 1021 -585 1180 -677 52 -30 217 -124 365 -210
149 -85 376 -215 505 -290 129 -74 239 -138 243 -142 12 -10 -32 -40 -58 -40
-12 0 -25 4 -30 9 -6 5 -163 97 -350 204 -361 207 -637 366 -850 489 -250 144
-840 484 -1010 581 -150 86 -220 142 -436 355 -319 312 -519 555 -683 830 -21
34 -42 62 -46 62 -22 0 -42 -63 -35 -109 24 -162 328 -555 701 -907 248 -234
280 -258 522 -395 96 -54 112 -67 108 -84 -6 -22 13 -135 23 -135 3 0 19 -10
34 -23 27 -22 28 -23 17 -74 -7 -29 -14 -53 -18 -53 -3 0 -25 9 -48 21 -139
67 -308 7 -378 -133 -33 -66 -36 -170 -7 -234 27 -59 81 -115 138 -144 73 -37
179 -35 251 5 50 27 98 71 120 111 15 27 46 10 38 -20 -5 -20 0 -28 30 -47 30
-18 40 -20 55 -11 10 7 28 12 38 12 11 0 23 5 26 11 4 5 21 9 38 7 26 -2 32 1
32 17 0 11 10 31 23 45 13 14 30 38 38 53 9 17 21 26 29 23 19 -7 38 17 23 32
-8 8 8 35 62 101 39 50 75 89 78 87 4 -2 79 -45 167 -96 88 -51 383 -221 655
-378 272 -157 499 -288 503 -292 4 -4 -70 -52 -165 -107 -95 -54 -481 -277
-858 -495 -377 -217 -744 -429 -816 -470 -88 -51 -167 -87 -240 -111 -296 -96
-589 -182 -797 -233 -188 -46 -459 -130 -525 -162 -61 -29 -74 -47 -61 -81 l9
-24 128 6 c278 12 633 77 1030 188 l287 80 400 229 c220 126 456 261 525 301
164 94 873 501 1117 641 l192 110 30 -18 c17 -10 31 -21 31 -24 0 -5 -67 -44
-530 -310 -140 -81 -379 -218 -530 -305 -151 -88 -304 -175 -340 -195 -36 -21
-121 -70 -190 -110 -412 -239 -668 -384 -704 -396 -45 -16 -363 -107 -516
-148 -196 -52 -518 -99 -772 -112 -120 -6 -138 -9 -138 -24 0 -26 43 -60 95
-76 63 -19 268 -18 411 1 195 26 461 87 749 171 251 74 328 107 547 235 110
64 117 66 132 50 9 -10 40 -24 69 -31 47 -11 58 -10 86 4 30 16 33 16 59 -2
44 -32 69 -64 54 -69 -41 -15 -100 -75 -129 -132 -38 -72 -44 -146 -17 -223
46 -138 213 -220 352 -174 69 23 143 91 172 158 29 68 30 159 1 224 -12 25
-21 50 -21 55 0 13 34 11 48 -3 9 -9 21 -7 50 6 38 17 40 20 47 79 4 37 13 65
22 72 17 13 10 35 -10 35 -16 0 -49 96 -49 138 0 24 -4 32 -17 32 -14 0 -29
25 -60 99 -22 55 -41 103 -41 108 0 4 80 54 178 109 97 56 392 226 655 378
l478 276 32 -16 c18 -9 115 -65 217 -124 102 -59 379 -218 615 -355 237 -136
435 -252 442 -257 18 -15 -64 -207 -94 -219 -25 -9 -30 -25 -10 -32 9 -3 8
-11 -4 -33 -9 -16 -22 -46 -28 -66 -7 -21 -19 -38 -27 -38 -19 0 -18 -19 2
-41 9 -10 17 -39 18 -70 3 -49 5 -53 39 -71 29 -15 40 -16 56 -7 10 7 26 9 35
6 15 -6 14 -11 -6 -49 -32 -60 -32 -184 0 -245 104 -200 371 -216 494 -30 82
124 50 290 -73 378 -26 19 -48 36 -49 39 0 3 18 23 39 44 l40 39 34 -17 c19
-9 41 -16 49 -16 25 0 102 31 112 46 9 12 29 4 126 -52 186 -107 298 -159 420
-197 534 -165 889 -234 1155 -226 99 4 128 8 166 27 43 21 78 65 60 76 -4 3
-84 10 -177 16 -368 22 -619 70 -1080 205 -219 65 -64 -19 -1474 795 -102 59
-364 209 -582 335 -219 126 -398 231 -398 235 0 3 14 14 30 24 l31 18 287
-165 c158 -91 406 -233 552 -317 1075 -619 1371 -786 1415 -801 140 -48 552
-158 690 -184 422 -79 713 -103 739 -62 26 41 -32 78 -218 137 -193 62 -206
66 -386 110 -219 55 -475 130 -775 227 -112 36 -115 38 -670 358 -88 51 -252
145 -365 210 -281 162 -426 245 -700 405 -129 75 -261 151 -293 169 -32 19
-55 37 -50 41 4 5 53 34 108 65 55 32 159 92 230 133 293 170 957 552 974 561
15 9 28 -3 83 -77 44 -58 65 -95 64 -112 -1 -20 3 -25 20 -23 16 2 25 -6 34
-26 6 -16 22 -39 36 -52 13 -12 24 -33 24 -47 0 -20 4 -23 23 -18 24 6 90 -13
109 -32 19 -19 88 27 88 59 0 49 20 51 53 6 65 -90 126 -121 237 -122 65 0 82
4 128 30 59 32 91 66 125 129 17 32 22 58 22 121 0 70 -4 87 -30 134 -75 135
-238 186 -376 118 -54 -27 -55 -26 -64 50 -6 46 -5 49 28 69 28 18 35 30 43
77 6 31 7 63 2 71 -10 17 -15 13 147 106 223 128 272 167 533 424 285 281 439
460 554 646 64 102 100 185 102 230 1 37 -28 95 -43 86 -5 -3 -39 -54 -75
-113 -157 -252 -329 -460 -630 -757 -171 -170 -264 -254 -321 -291 -75 -48
-293 -175 -1150 -667 -187 -108 -470 -271 -630 -363 -598 -344 -585 -337 -608
-331 -36 9 -53 24 -42 35 6 5 69 43 140 84 72 40 204 117 295 169 91 52 287
165 435 250 149 85 425 244 615 353 190 109 462 265 605 348 143 82 286 168
317 191 83 62 445 412 558 541 174 198 407 503 456 596 11 22 12 34 4 49 -15
28 -47 25 -100 -9 -54 -34 -355 -314 -423 -394 -48 -56 -414 -405 -578 -551
-94 -83 -91 -82 -489 -311 -236 -136 -622 -359 -987 -571 -54 -31 -181 -105
-283 -164 -102 -59 -313 -181 -470 -272 -157 -91 -295 -170 -307 -176 -23 -13
8 -29 -503 267 -207 120 -1192 690 -1400 811 -74 43 -234 135 -355 205 -121
70 -245 148 -275 174 -103 87 -535 498 -665 633 -236 244 -392 378 -440 378
-12 0 -26 -5 -33 -12z m1449 -1825 c8 -10 23 -45 33 -77 16 -53 16 -60 2 -68
-9 -5 -13 -15 -9 -24 4 -12 1 -15 -13 -12 -11 2 -29 26 -45 58 -22 45 -26 65
-22 107 5 45 8 51 22 44 9 -5 23 -17 32 -28z m4459 -24 c0 -52 -20 -111 -47
-141 -21 -24 -33 -23 -33 2 0 11 -6 20 -14 20 -12 0 -11 11 4 61 18 60 64 124
82 113 4 -3 8 -28 8 -55z m-4685 -160 c64 -57 66 -145 4 -205 -26 -25 -38 -29
-89 -29 -51 0 -63 4 -89 29 -65 62 -63 146 4 205 30 26 44 31 85 31 41 0 55
-5 85 -31z m5006 16 c40 -21 69 -71 69 -120 0 -76 -59 -135 -135 -135 -103 0
-164 101 -118 197 31 66 116 93 184 58z m-4135 -2057 c52 -9 64 -15 64 -30 0
-10 7 -21 15 -24 30 -12 2 -24 -56 -24 -47 0 -70 6 -105 26 -50 29 -54 41 -21
54 30 12 30 12 103 -2z m3222 -1 c22 -13 22 -14 5 -28 -47 -39 -74 -49 -137
-49 -64 0 -98 16 -57 27 12 3 21 13 21 24 0 31 124 50 168 26z m-3122 -298
c55 -51 67 -104 37 -166 -22 -48 -66 -73 -127 -73 -43 0 -53 4 -87 39 -38 38
-44 56 -39 121 7 94 146 145 216 79z m3065 16 c40 -21 69 -71 69 -120 0 -76
-59 -135 -135 -135 -103 0 -167 109 -120 201 32 62 121 87 186 54z"/>
<path d="M3842 6578 c-16 -16 -15 -53 2 -67 8 -7 27 -11 43 -9 34 4 54 47 33
72 -15 19 -61 21 -78 4z"/>
<path d="M8872 6578 c-34 -34 10 -98 52 -76 39 20 46 47 20 72 -18 19 -55 21
-72 4z"/>
<path d="M4810 4230 c-14 -26 -5 -57 21 -71 43 -23 92 44 57 79 -20 20 -66 15
-78 -8z"/>
<path d="M7896 4234 c-19 -18 -19 -17 -4 -49 20 -44 88 -29 88 20 0 43 -53 61
-84 29z"/>
<path d="M2830 10898 c-82 -42 -109 -134 -64 -220 21 -41 92 -116 125 -134 96
-49 219 25 219 131 -1 103 -123 245 -212 245 -13 0 -44 -10 -68 -22z"/>
<path d="M10957 9610 c-49 -15 -91 -30 -94 -33 -6 -7 78 -117 89 -117 7 0 108
163 108 174 0 9 -6 7 -103 -24z"/>
<path d="M8439 1377 c-61 -32 -89 -77 -89 -141 0 -28 4 -57 8 -63 6 -10 46 4
153 53 79 37 148 70 153 75 13 12 -40 68 -81 85 -47 20 -94 17 -144 -9z"/>
<path d="M5006 1145 c-92 -33 -150 -131 -151 -258 l0 -78 41 -39 c125 -116
278 -49 329 145 18 69 12 115 -20 166 -39 60 -129 89 -199 64z"/>
<path d="M7776 911 c-3 -5 -52 -28 -108 -52 -57 -24 -113 -53 -125 -66 -54
-53 -7 -143 75 -143 79 0 179 71 195 139 3 13 1 48 -5 77 -10 51 -20 65 -32
45z"/>
<path d="M5585 1011 c-22 -10 -48 -27 -57 -37 -60 -68 -82 -223 -42 -299 28
-54 83 -85 152 -85 111 0 177 72 196 216 22 160 -110 269 -249 205z"/>
</g>
</svg>
